<svg xmlns="http://www.w3.org/2000/svg" viewBox="0 0 300 400" width="300" height="400">
  <defs>
    <linearGradient id="ds-frame" x1="0" y1="0" x2="1" y2="0">
      <stop offset="0%" stop-color="#006633"/>
      <stop offset="100%" stop-color="#009944"/>
    </linearGradient>
  </defs>
  <ellipse cx="150" cy="380" rx="45" ry="6" fill="#e0e0e0" opacity="0.5"/>
  <g transform="translate(150,200)">
    <!-- Head 100sq.in wide spin-friendly -->
    <ellipse cx="0" cy="-72" rx="52" ry="74" fill="none" stroke="url(#ds-frame)" stroke-width="5.5"/>
    <ellipse cx="0" cy="-72" rx="49" ry="71" fill="none" stroke="#006633" stroke-width="0.8" opacity="0.25"/>
    <!-- Yellow-green SX bumper -->
    <path d="M -34,-144 Q 0,-152 34,-144" fill="none" stroke="#AADD00" stroke-width="2.5" stroke-linecap="round"/>
    <path d="M -50,-90 Q -54,-72 -50,-54" fill="none" stroke="#AADD00" stroke-width="1.5" stroke-linecap="round"/>
    <path d="M 50,-90 Q 54,-72 50,-54" fill="none" stroke="#AADD00" stroke-width="1.5" stroke-linecap="round"/>
    <!-- Strings 16x19 spin pattern -->
    <line x1="-42" y1="-122" x2="-42" y2="-22" stroke="#d0d0d0" stroke-width="0.6"/>
    <line x1="-36" y1="-132" x2="-36" y2="-12" stroke="#d0d0d0" stroke-width="0.6"/>
    <line x1="-30" y1="-137" x2="-30" y2="-7" stroke="#d0d0d0" stroke-width="0.6"/>
    <line x1="-24" y1="-140" x2="-24" y2="-4" stroke="#d0d0d0" stroke-width="0.6"/>
    <line x1="-18" y1="-142" x2="-18" y2="-2" stroke="#d0d0d0" stroke-width="0.6"/>
    <line x1="-12" y1="-143" x2="-12" y2="-1" stroke="#d0d0d0" stroke-width="0.6"/>
    <line x1="-6" y1="-144" x2="-6" y2="0" stroke="#d0d0d0" stroke-width="0.6"/>
    <line x1="0" y1="-145" x2="0" y2="1" stroke="#d0d0d0" stroke-width="0.6"/>
    <line x1="6" y1="-144" x2="6" y2="0" stroke="#d0d0d0" stroke-width="0.6"/>
    <line x1="12" y1="-143" x2="12" y2="-1" stroke="#d0d0d0" stroke-width="0.6"/>
    <line x1="18" y1="-142" x2="18" y2="-2" stroke="#d0d0d0" stroke-width="0.6"/>
    <line x1="24" y1="-140" x2="24" y2="-4" stroke="#d0d0d0" stroke-width="0.6"/>
    <line x1="30" y1="-137" x2="30" y2="-7" stroke="#d0d0d0" stroke-width="0.6"/>
    <line x1="36" y1="-132" x2="36" y2="-12" stroke="#d0d0d0" stroke-width="0.6"/>
    <line x1="42" y1="-122" x2="42" y2="-22" stroke="#d0d0d0" stroke-width="0.6"/>
    <line x1="-48" y1="-110" x2="-48" y2="-34" stroke="#d0d0d0" stroke-width="0.6"/>
    <!-- Crosses 19 -->
    <line x1="-48" y1="-134" x2="48" y2="-134" stroke="#d0d0d0" stroke-width="0.6"/>
    <line x1="-50" y1="-127" x2="50" y2="-127" stroke="#d0d0d0" stroke-width="0.6"/>
    <line x1="-51" y1="-120" x2="51" y2="-120" stroke="#d0d0d0" stroke-width="0.6"/>
    <line x1="-52" y1="-113" x2="52" y2="-113" stroke="#d0d0d0" stroke-width="0.6"/>
    <line x1="-52" y1="-106" x2="52" y2="-106" stroke="#d0d0d0" stroke-width="0.6"/>
    <line x1="-52" y1="-99" x2="52" y2="-99" stroke="#d0d0d0" stroke-width="0.6"/>
    <line x1="-52" y1="-92" x2="52" y2="-92" stroke="#d0d0d0" stroke-width="0.6"/>
    <line x1="-52" y1="-85" x2="52" y2="-85" stroke="#d0d0d0" stroke-width="0.6"/>
    <line x1="-52" y1="-78" x2="52" y2="-78" stroke="#d0d0d0" stroke-width="0.6"/>
    <line x1="-52" y1="-71" x2="52" y2="-71" stroke="#d0d0d0" stroke-width="0.6"/>
    <line x1="-52" y1="-64" x2="52" y2="-64" stroke="#d0d0d0" stroke-width="0.6"/>
    <line x1="-52" y1="-57" x2="52" y2="-57" stroke="#d0d0d0" stroke-width="0.6"/>
    <line x1="-51" y1="-50" x2="51" y2="-50" stroke="#d0d0d0" stroke-width="0.6"/>
    <line x1="-50" y1="-43" x2="50" y2="-43" stroke="#d0d0d0" stroke-width="0.6"/>
    <line x1="-48" y1="-36" x2="48" y2="-36" stroke="#d0d0d0" stroke-width="0.6"/>
    <line x1="-46" y1="-29" x2="46" y2="-29" stroke="#d0d0d0" stroke-width="0.6"/>
    <line x1="-42" y1="-22" x2="42" y2="-22" stroke="#d0d0d0" stroke-width="0.6"/>
    <line x1="-36" y1="-15" x2="36" y2="-15" stroke="#d0d0d0" stroke-width="0.6"/>
    <line x1="-26" y1="-8" x2="26" y2="-8" stroke="#d0d0d0" stroke-width="0.6"/>
    <!-- SX wide spin throat -->
    <path d="M -40,2 Q -32,22 -6,50" fill="none" stroke="url(#ds-frame)" stroke-width="4.5" stroke-linecap="round"/>
    <path d="M 40,2 Q 32,22 6,50" fill="none" stroke="url(#ds-frame)" stroke-width="4.5" stroke-linecap="round"/>
    <path d="M -32,16 Q 0,26 32,16" fill="none" stroke="#AADD00" stroke-width="2" stroke-linecap="round"/>
    <!-- Shaft -->
    <rect x="-4" y="50" width="8" height="44" rx="2" fill="#006633" opacity="0.9"/>
    <rect x="-2" y="52" width="1.5" height="40" rx="1" fill="#AADD00" opacity="0.2"/>
    <!-- Handle -->
    <rect x="-6" y="94" width="12" height="60" rx="3" fill="#1A1A1A"/>
    <line x1="-4" y1="102" x2="4" y2="102" stroke="#333" stroke-width="0.7"/>
    <line x1="-4" y1="110" x2="4" y2="110" stroke="#333" stroke-width="0.7"/>
    <line x1="-4" y1="118" x2="4" y2="118" stroke="#333" stroke-width="0.7"/>
    <line x1="-4" y1="126" x2="4" y2="126" stroke="#333" stroke-width="0.7"/>
    <line x1="-4" y1="134" x2="4" y2="134" stroke="#333" stroke-width="0.7"/>
    <line x1="-4" y1="142" x2="4" y2="142" stroke="#333" stroke-width="0.7"/>
    <rect x="-7" y="151" width="14" height="6" rx="2.5" fill="#111"/>
    <rect x="-6" y="94" width="12" height="5" rx="2" fill="#AADD00" opacity="0.7"/>
    <text x="0" y="101" text-anchor="middle" font-family="Arial,sans-serif" font-size="4" font-weight="bold" fill="#006633" letter-spacing="0.5">D</text>
  </g>
</svg>