<svg xmlns="http://www.w3.org/2000/svg" viewBox="0 0 300 400" width="300" height="400">
  <defs>
    <linearGradient id="he-frame" x1="0" y1="0" x2="1" y2="0.5">
      <stop offset="0%" stop-color="#FF6600"/>
      <stop offset="50%" stop-color="#CC5200"/>
      <stop offset="100%" stop-color="#FF6600"/>
    </linearGradient>
  </defs>
  <ellipse cx="150" cy="380" rx="45" ry="6" fill="#e0e0e0" opacity="0.5"/>
  <g transform="translate(150,200)">
    <!-- Head 100sq.in, thick beam -->
    <ellipse cx="0" cy="-72" rx="50" ry="72" fill="none" stroke="url(#he-frame)" stroke-width="5.5"/>
    <ellipse cx="0" cy="-72" rx="47" ry="69" fill="none" stroke="#FF6600" stroke-width="1" opacity="0.2"/>
    <!-- Neon yellow-green accent (Extreme series signature) -->
    <path d="M -48,-95 Q -52,-72 -48,-49" fill="none" stroke="#CCFF00" stroke-width="2" stroke-linecap="round"/>
    <path d="M 48,-95 Q 52,-72 48,-49" fill="none" stroke="#CCFF00" stroke-width="2" stroke-linecap="round"/>
    <path d="M -32,-142 Q 0,-148 32,-142" fill="none" stroke="#CCFF00" stroke-width="2" stroke-linecap="round"/>
    <!-- Strings 16x19 -->
    <line x1="-40" y1="-122" x2="-40" y2="-22" stroke="#d0d0d0" stroke-width="0.6"/>
    <line x1="-34" y1="-131" x2="-34" y2="-13" stroke="#d0d0d0" stroke-width="0.6"/>
    <line x1="-28" y1="-136" x2="-28" y2="-8" stroke="#d0d0d0" stroke-width="0.6"/>
    <line x1="-22" y1="-139" x2="-22" y2="-5" stroke="#d0d0d0" stroke-width="0.6"/>
    <line x1="-16" y1="-141" x2="-16" y2="-3" stroke="#d0d0d0" stroke-width="0.6"/>
    <line x1="-10" y1="-142" x2="-10" y2="-2" stroke="#d0d0d0" stroke-width="0.6"/>
    <line x1="-4" y1="-143" x2="-4" y2="-1" stroke="#d0d0d0" stroke-width="0.6"/>
    <line x1="2" y1="-143" x2="2" y2="-1" stroke="#d0d0d0" stroke-width="0.6"/>
    <line x1="8" y1="-143" x2="8" y2="-1" stroke="#d0d0d0" stroke-width="0.6"/>
    <line x1="14" y1="-142" x2="14" y2="-2" stroke="#d0d0d0" stroke-width="0.6"/>
    <line x1="20" y1="-141" x2="20" y2="-3" stroke="#d0d0d0" stroke-width="0.6"/>
    <line x1="26" y1="-139" x2="26" y2="-5" stroke="#d0d0d0" stroke-width="0.6"/>
    <line x1="32" y1="-136" x2="32" y2="-8" stroke="#d0d0d0" stroke-width="0.6"/>
    <line x1="38" y1="-131" x2="38" y2="-13" stroke="#d0d0d0" stroke-width="0.6"/>
    <line x1="44" y1="-122" x2="44" y2="-22" stroke="#d0d0d0" stroke-width="0.6"/>
    <line x1="-47" y1="-112" x2="-47" y2="-32" stroke="#d0d0d0" stroke-width="0.6"/>
    <!-- Crosses 19 -->
    <line x1="-46" y1="-134" x2="46" y2="-134" stroke="#d0d0d0" stroke-width="0.6"/>
    <line x1="-48" y1="-127" x2="48" y2="-127" stroke="#d0d0d0" stroke-width="0.6"/>
    <line x1="-49" y1="-120" x2="49" y2="-120" stroke="#d0d0d0" stroke-width="0.6"/>
    <line x1="-50" y1="-113" x2="50" y2="-113" stroke="#d0d0d0" stroke-width="0.6"/>
    <line x1="-50" y1="-106" x2="50" y2="-106" stroke="#d0d0d0" stroke-width="0.6"/>
    <line x1="-50" y1="-99" x2="50" y2="-99" stroke="#d0d0d0" stroke-width="0.6"/>
    <line x1="-50" y1="-92" x2="50" y2="-92" stroke="#d0d0d0" stroke-width="0.6"/>
    <line x1="-50" y1="-85" x2="50" y2="-85" stroke="#d0d0d0" stroke-width="0.6"/>
    <line x1="-50" y1="-78" x2="50" y2="-78" stroke="#d0d0d0" stroke-width="0.6"/>
    <line x1="-50" y1="-71" x2="50" y2="-71" stroke="#d0d0d0" stroke-width="0.6"/>
    <line x1="-50" y1="-64" x2="50" y2="-64" stroke="#d0d0d0" stroke-width="0.6"/>
    <line x1="-50" y1="-57" x2="50" y2="-57" stroke="#d0d0d0" stroke-width="0.6"/>
    <line x1="-49" y1="-50" x2="49" y2="-50" stroke="#d0d0d0" stroke-width="0.6"/>
    <line x1="-48" y1="-43" x2="48" y2="-43" stroke="#d0d0d0" stroke-width="0.6"/>
    <line x1="-47" y1="-36" x2="47" y2="-36" stroke="#d0d0d0" stroke-width="0.6"/>
    <line x1="-44" y1="-29" x2="44" y2="-29" stroke="#d0d0d0" stroke-width="0.6"/>
    <line x1="-40" y1="-22" x2="40" y2="-22" stroke="#d0d0d0" stroke-width="0.6"/>
    <line x1="-34" y1="-15" x2="34" y2="-15" stroke="#d0d0d0" stroke-width="0.6"/>
    <line x1="-24" y1="-8" x2="24" y2="-8" stroke="#d0d0d0" stroke-width="0.6"/>
    <!-- Angular modern throat (Head Extreme) -->
    <path d="M -38,2 L -22,22 L -5,48" fill="none" stroke="#1A1A1A" stroke-width="4.5" stroke-linecap="round" stroke-linejoin="round"/>
    <path d="M 38,2 L 22,22 L 5,48" fill="none" stroke="#1A1A1A" stroke-width="4.5" stroke-linecap="round" stroke-linejoin="round"/>
    <line x1="-22" y1="22" x2="22" y2="22" stroke="#CCFF00" stroke-width="2.5" stroke-linecap="round"/>
    <!-- Shaft -->
    <rect x="-4" y="48" width="8" height="46" rx="2" fill="#1A1A1A" opacity="0.9"/>
    <rect x="-2" y="50" width="1.5" height="42" rx="1" fill="#CCFF00" opacity="0.2"/>
    <!-- Handle -->
    <rect x="-6" y="94" width="12" height="60" rx="3" fill="#1A1A1A"/>
    <line x1="-4" y1="102" x2="4" y2="102" stroke="#444" stroke-width="0.7"/>
    <line x1="-4" y1="110" x2="4" y2="110" stroke="#444" stroke-width="0.7"/>
    <line x1="-4" y1="118" x2="4" y2="118" stroke="#444" stroke-width="0.7"/>
    <line x1="-4" y1="126" x2="4" y2="126" stroke="#444" stroke-width="0.7"/>
    <line x1="-4" y1="134" x2="4" y2="134" stroke="#444" stroke-width="0.7"/>
    <line x1="-4" y1="142" x2="4" y2="142" stroke="#444" stroke-width="0.7"/>
    <rect x="-7" y="151" width="14" height="6" rx="2.5" fill="#111"/>
    <rect x="-6" y="94" width="12" height="5" rx="2" fill="#CCFF00" opacity="0.7"/>
    <text x="0" y="101" text-anchor="middle" font-family="Arial,sans-serif" font-size="4" font-weight="bold" fill="#1A1A1A" letter-spacing="0.5">H</text>
  </g>
</svg>