<svg xmlns="http://www.w3.org/2000/svg" viewBox="0 0 300 400" width="300" height="400">
  <defs>
    <linearGradient id="hp-frame" x1="0" y1="0" x2="0" y2="1">
      <stop offset="0%" stop-color="#555555"/>
      <stop offset="50%" stop-color="#3A3A3A"/>
      <stop offset="100%" stop-color="#555555"/>
    </linearGradient>
  </defs>
  <ellipse cx="150" cy="380" rx="45" ry="6" fill="#e0e0e0" opacity="0.5"/>
  <g transform="translate(150,200)">
    <!-- Head 98sq.in narrow - Prestige austere -->
    <ellipse cx="0" cy="-72" rx="46" ry="68" fill="none" stroke="url(#hp-frame)" stroke-width="3.5"/>
    <ellipse cx="0" cy="-72" rx="43.5" ry="65.5" fill="none" stroke="#444" stroke-width="0.6" opacity="0.25"/>
    <!-- Subtle orange accent on bumper only -->
    <path d="M -28,-138 Q 0,-143 28,-138" fill="none" stroke="#FF6600" stroke-width="1.5" stroke-linecap="round" opacity="0.7"/>
    <!-- Dense strings 18x20 -->
    <line x1="-39" y1="-118" x2="-39" y2="-26" stroke="#c8c8c8" stroke-width="0.5"/>
    <line x1="-34" y1="-126" x2="-34" y2="-18" stroke="#c8c8c8" stroke-width="0.5"/>
    <line x1="-29" y1="-131" x2="-29" y2="-13" stroke="#c8c8c8" stroke-width="0.5"/>
    <line x1="-24" y1="-134" x2="-24" y2="-10" stroke="#c8c8c8" stroke-width="0.5"/>
    <line x1="-19" y1="-136" x2="-19" y2="-8" stroke="#c8c8c8" stroke-width="0.5"/>
    <line x1="-14" y1="-137" x2="-14" y2="-7" stroke="#c8c8c8" stroke-width="0.5"/>
    <line x1="-9" y1="-138" x2="-9" y2="-6" stroke="#c8c8c8" stroke-width="0.5"/>
    <line x1="-4" y1="-139" x2="-4" y2="-5" stroke="#c8c8c8" stroke-width="0.5"/>
    <line x1="1" y1="-139" x2="1" y2="-5" stroke="#c8c8c8" stroke-width="0.5"/>
    <line x1="6" y1="-139" x2="6" y2="-5" stroke="#c8c8c8" stroke-width="0.5"/>
    <line x1="11" y1="-138" x2="11" y2="-6" stroke="#c8c8c8" stroke-width="0.5"/>
    <line x1="16" y1="-137" x2="16" y2="-7" stroke="#c8c8c8" stroke-width="0.5"/>
    <line x1="21" y1="-136" x2="21" y2="-8" stroke="#c8c8c8" stroke-width="0.5"/>
    <line x1="26" y1="-134" x2="26" y2="-10" stroke="#c8c8c8" stroke-width="0.5"/>
    <line x1="31" y1="-131" x2="31" y2="-13" stroke="#c8c8c8" stroke-width="0.5"/>
    <line x1="36" y1="-126" x2="36" y2="-18" stroke="#c8c8c8" stroke-width="0.5"/>
    <line x1="41" y1="-118" x2="41" y2="-26" stroke="#c8c8c8" stroke-width="0.5"/>
    <line x1="-44" y1="-108" x2="-44" y2="-36" stroke="#c8c8c8" stroke-width="0.5"/>
    <!-- Crosses 20 -->
    <line x1="-42" y1="-131" x2="42" y2="-131" stroke="#c8c8c8" stroke-width="0.5"/>
    <line x1="-44" y1="-125" x2="44" y2="-125" stroke="#c8c8c8" stroke-width="0.5"/>
    <line x1="-45" y1="-119" x2="45" y2="-119" stroke="#c8c8c8" stroke-width="0.5"/>
    <line x1="-46" y1="-113" x2="46" y2="-113" stroke="#c8c8c8" stroke-width="0.5"/>
    <line x1="-46" y1="-107" x2="46" y2="-107" stroke="#c8c8c8" stroke-width="0.5"/>
    <line x1="-46" y1="-101" x2="46" y2="-101" stroke="#c8c8c8" stroke-width="0.5"/>
    <line x1="-46" y1="-95" x2="46" y2="-95" stroke="#c8c8c8" stroke-width="0.5"/>
    <line x1="-46" y1="-89" x2="46" y2="-89" stroke="#c8c8c8" stroke-width="0.5"/>
    <line x1="-46" y1="-83" x2="46" y2="-83" stroke="#c8c8c8" stroke-width="0.5"/>
    <line x1="-46" y1="-77" x2="46" y2="-77" stroke="#c8c8c8" stroke-width="0.5"/>
    <line x1="-46" y1="-71" x2="46" y2="-71" stroke="#c8c8c8" stroke-width="0.5"/>
    <line x1="-46" y1="-65" x2="46" y2="-65" stroke="#c8c8c8" stroke-width="0.5"/>
    <line x1="-46" y1="-59" x2="46" y2="-59" stroke="#c8c8c8" stroke-width="0.5"/>
    <line x1="-45" y1="-53" x2="45" y2="-53" stroke="#c8c8c8" stroke-width="0.5"/>
    <line x1="-44" y1="-47" x2="44" y2="-47" stroke="#c8c8c8" stroke-width="0.5"/>
    <line x1="-43" y1="-41" x2="43" y2="-41" stroke="#c8c8c8" stroke-width="0.5"/>
    <line x1="-41" y1="-35" x2="41" y2="-35" stroke="#c8c8c8" stroke-width="0.5"/>
    <line x1="-38" y1="-29" x2="38" y2="-29" stroke="#c8c8c8" stroke-width="0.5"/>
    <line x1="-34" y1="-23" x2="34" y2="-23" stroke="#c8c8c8" stroke-width="0.5"/>
    <line x1="-26" y1="-17" x2="26" y2="-17" stroke="#c8c8c8" stroke-width="0.5"/>
    <!-- Classic slim throat - Prestige most austere -->
    <path d="M -34,0 Q -26,14 -14,30 L -5,48" fill="none" stroke="url(#hp-frame)" stroke-width="3" stroke-linecap="round"/>
    <path d="M 34,0 Q 26,14 14,30 L 5,48" fill="none" stroke="url(#hp-frame)" stroke-width="3" stroke-linecap="round"/>
    <line x1="-20" y1="20" x2="20" y2="20" stroke="#555" stroke-width="1.8" stroke-linecap="round"/>
    <!-- Shaft -->
    <rect x="-3.5" y="48" width="7" height="48" rx="2" fill="#3A3A3A" opacity="0.9"/>
    <rect x="-2" y="50" width="1.5" height="44" rx="1" fill="#fff" opacity="0.08"/>
    <!-- Handle -->
    <rect x="-6" y="96" width="12" height="60" rx="3" fill="#1A1A1A"/>
    <line x1="-4" y1="104" x2="4" y2="104" stroke="#333" stroke-width="0.7"/>
    <line x1="-4" y1="112" x2="4" y2="112" stroke="#333" stroke-width="0.7"/>
    <line x1="-4" y1="120" x2="4" y2="120" stroke="#333" stroke-width="0.7"/>
    <line x1="-4" y1="128" x2="4" y2="128" stroke="#333" stroke-width="0.7"/>
    <line x1="-4" y1="136" x2="4" y2="136" stroke="#333" stroke-width="0.7"/>
    <line x1="-4" y1="144" x2="4" y2="144" stroke="#333" stroke-width="0.7"/>
    <rect x="-7" y="153" width="14" height="6" rx="2.5" fill="#111"/>
    <rect x="-6" y="96" width="12" height="5" rx="2" fill="#FF6600" opacity="0.5"/>
    <text x="0" y="103" text-anchor="middle" font-family="Arial,sans-serif" font-size="4" font-weight="bold" fill="#FF6600" letter-spacing="0.5">H</text>
  </g>
</svg>