<svg xmlns="http://www.w3.org/2000/svg" viewBox="0 0 300 400" width="300" height="400">
  <defs>
    <linearGradient id="fr" x1="0" y1="0" x2="1" y2="1">
      <stop offset="0%" stop-color="#6A0DAD"/>
      <stop offset="50%" stop-color="#3D0066"/>
      <stop offset="100%" stop-color="#6A0DAD"/>
    </linearGradient>
    <linearGradient id="hd" x1="0" y1="0" x2="0" y2="1">
      <stop offset="0%" stop-color="#2A2A2A"/>
      <stop offset="100%" stop-color="#1A1A1A"/>
    </linearGradient>
  </defs>
  <ellipse cx="150" cy="380" rx="45" ry="6" fill="#e0e0e0" opacity="0.5"/>
  <g transform="translate(150,200)">
    <ellipse cx="0" cy="-72" rx="50" ry="70" fill="none" stroke="url(#fr)" stroke-width="5"/>
    <ellipse cx="0" cy="-72" rx="47" ry="67" fill="none" stroke="#6A0DAD" stroke-width="1" opacity="0.3"/>
    <path d="M -48,-85 Q -52,-72 -48,-58" fill="none" stroke="#1A1A1A" stroke-width="2.5" stroke-linecap="round"/>
    <path d="M 48,-85 Q 52,-72 48,-58" fill="none" stroke="#1A1A1A" stroke-width="2.5" stroke-linecap="round"/>
    <line x1="-34" y1="-130" x2="-34" y2="-14" stroke="#d0d0d0" stroke-width="0.6"/>
    <line x1="-22" y1="-137" x2="-22" y2="-7" stroke="#d0d0d0" stroke-width="0.6"/>
    <line x1="-10" y1="-140" x2="-10" y2="-4" stroke="#d0d0d0" stroke-width="0.6"/>
    <line x1="2" y1="-141" x2="2" y2="-3" stroke="#d0d0d0" stroke-width="0.6"/>
    <line x1="14" y1="-140" x2="14" y2="-4" stroke="#d0d0d0" stroke-width="0.6"/>
    <line x1="26" y1="-137" x2="26" y2="-7" stroke="#d0d0d0" stroke-width="0.6"/>
    <line x1="38" y1="-130" x2="38" y2="-14" stroke="#d0d0d0" stroke-width="0.6"/>
    <line x1="-48" y1="-125" x2="48" y2="-125" stroke="#d0d0d0" stroke-width="0.6"/>
    <line x1="-50" y1="-104" x2="50" y2="-104" stroke="#d0d0d0" stroke-width="0.6"/>
    <line x1="-50" y1="-83" x2="50" y2="-83" stroke="#d0d0d0" stroke-width="0.6"/>
    <line x1="-50" y1="-62" x2="50" y2="-62" stroke="#d0d0d0" stroke-width="0.6"/>
    <line x1="-48" y1="-41" x2="48" y2="-41" stroke="#d0d0d0" stroke-width="0.6"/>
    <line x1="-38" y1="-13" x2="38" y2="-13" stroke="#d0d0d0" stroke-width="0.6"/>
    <path d="M -38,0 Q -30,12 -18,28 L -5,48" fill="none" stroke="url(#fr)" stroke-width="4" stroke-linecap="round"/>
    <path d="M 38,0 Q 30,12 18,28 L 5,48" fill="none" stroke="url(#fr)" stroke-width="4" stroke-linecap="round"/>
    <line x1="-22" y1="22" x2="22" y2="22" stroke="#6A0DAD" stroke-width="2.5" stroke-linecap="round"/>
    <rect x="-4" y="48" width="8" height="48" rx="2" fill="#6A0DAD" opacity="0.9"/>
    <rect x="-6" y="96" width="12" height="60" rx="3" fill="url(#hd)"/>
    <line x1="-4" y1="104" x2="4" y2="104" stroke="#444" stroke-width="0.7"/>
    <line x1="-4" y1="112" x2="4" y2="112" stroke="#444" stroke-width="0.7"/>
    <line x1="-4" y1="120" x2="4" y2="120" stroke="#444" stroke-width="0.7"/>
    <line x1="-4" y1="128" x2="4" y2="128" stroke="#444" stroke-width="0.7"/>
    <line x1="-4" y1="136" x2="4" y2="136" stroke="#444" stroke-width="0.7"/>
    <line x1="-4" y1="144" x2="4" y2="144" stroke="#444" stroke-width="0.7"/>
    <rect x="-7" y="153" width="14" height="6" rx="2.5" fill="#1A1A1A"/>
    <rect x="-6" y="96" width="12" height="5" rx="2" fill="#6A0DAD" opacity="0.8"/>
    <text x="0" y="103" text-anchor="middle" font-family="Arial,sans-serif" font-size="4" font-weight="bold" fill="#6A0DAD" letter-spacing="1">P</text>
  </g>
</svg>
