<svg xmlns="http://www.w3.org/2000/svg" viewBox="0 0 300 400" width="300" height="400">
  <defs>
    <linearGradient id="pt98-frame" x1="0" y1="0" x2="0" y2="1">
      <stop offset="0%" stop-color="#6B2D8B"/>
      <stop offset="100%" stop-color="#4A1D62"/>
    </linearGradient>
  </defs>
  <ellipse cx="150" cy="380" rx="45" ry="6" fill="#e0e0e0" opacity="0.5"/>
  <g transform="translate(150,200)">
    <!-- Head 98sq.in narrower -->
    <ellipse cx="0" cy="-72" rx="46" ry="68" fill="none" stroke="url(#pt98-frame)" stroke-width="4.5"/>
    <ellipse cx="0" cy="-72" rx="43.5" ry="65.5" fill="none" stroke="#6B2D8B" stroke-width="0.8" opacity="0.2"/>
    <!-- Bumper -->
    <path d="M -28,-138 Q 0,-144 28,-138" fill="none" stroke="#6B2D8B" stroke-width="2.5" stroke-linecap="round"/>
    <!-- Strings 18x20 dense (control racket) -->
    <line x1="-38" y1="-118" x2="-38" y2="-26" stroke="#c8c8c8" stroke-width="0.5"/>
    <line x1="-34" y1="-124" x2="-34" y2="-20" stroke="#c8c8c8" stroke-width="0.5"/>
    <line x1="-29" y1="-130" x2="-29" y2="-14" stroke="#c8c8c8" stroke-width="0.5"/>
    <line x1="-24" y1="-133" x2="-24" y2="-11" stroke="#c8c8c8" stroke-width="0.5"/>
    <line x1="-19" y1="-135" x2="-19" y2="-9" stroke="#c8c8c8" stroke-width="0.5"/>
    <line x1="-14" y1="-136" x2="-14" y2="-8" stroke="#c8c8c8" stroke-width="0.5"/>
    <line x1="-9" y1="-137" x2="-9" y2="-7" stroke="#c8c8c8" stroke-width="0.5"/>
    <line x1="-4" y1="-138" x2="-4" y2="-6" stroke="#c8c8c8" stroke-width="0.5"/>
    <line x1="1" y1="-138" x2="1" y2="-6" stroke="#c8c8c8" stroke-width="0.5"/>
    <line x1="6" y1="-138" x2="6" y2="-6" stroke="#c8c8c8" stroke-width="0.5"/>
    <line x1="11" y1="-137" x2="11" y2="-7" stroke="#c8c8c8" stroke-width="0.5"/>
    <line x1="16" y1="-136" x2="16" y2="-8" stroke="#c8c8c8" stroke-width="0.5"/>
    <line x1="21" y1="-135" x2="21" y2="-9" stroke="#c8c8c8" stroke-width="0.5"/>
    <line x1="26" y1="-133" x2="26" y2="-11" stroke="#c8c8c8" stroke-width="0.5"/>
    <line x1="31" y1="-130" x2="31" y2="-14" stroke="#c8c8c8" stroke-width="0.5"/>
    <line x1="36" y1="-124" x2="36" y2="-20" stroke="#c8c8c8" stroke-width="0.5"/>
    <line x1="40" y1="-118" x2="40" y2="-26" stroke="#c8c8c8" stroke-width="0.5"/>
    <line x1="-43" y1="-110" x2="-43" y2="-34" stroke="#c8c8c8" stroke-width="0.5"/>
    <!-- Crosses 20 dense -->
    <line x1="-42" y1="-130" x2="42" y2="-130" stroke="#c8c8c8" stroke-width="0.5"/>
    <line x1="-44" y1="-124" x2="44" y2="-124" stroke="#c8c8c8" stroke-width="0.5"/>
    <line x1="-45" y1="-118" x2="45" y2="-118" stroke="#c8c8c8" stroke-width="0.5"/>
    <line x1="-46" y1="-112" x2="46" y2="-112" stroke="#c8c8c8" stroke-width="0.5"/>
    <line x1="-46" y1="-106" x2="46" y2="-106" stroke="#c8c8c8" stroke-width="0.5"/>
    <line x1="-46" y1="-100" x2="46" y2="-100" stroke="#c8c8c8" stroke-width="0.5"/>
    <line x1="-46" y1="-94" x2="46" y2="-94" stroke="#c8c8c8" stroke-width="0.5"/>
    <line x1="-46" y1="-88" x2="46" y2="-88" stroke="#c8c8c8" stroke-width="0.5"/>
    <line x1="-46" y1="-82" x2="46" y2="-82" stroke="#c8c8c8" stroke-width="0.5"/>
    <line x1="-46" y1="-76" x2="46" y2="-76" stroke="#c8c8c8" stroke-width="0.5"/>
    <line x1="-46" y1="-70" x2="46" y2="-70" stroke="#c8c8c8" stroke-width="0.5"/>
    <line x1="-46" y1="-64" x2="46" y2="-64" stroke="#c8c8c8" stroke-width="0.5"/>
    <line x1="-45" y1="-58" x2="45" y2="-58" stroke="#c8c8c8" stroke-width="0.5"/>
    <line x1="-44" y1="-52" x2="44" y2="-52" stroke="#c8c8c8" stroke-width="0.5"/>
    <line x1="-43" y1="-46" x2="43" y2="-46" stroke="#c8c8c8" stroke-width="0.5"/>
    <line x1="-42" y1="-40" x2="42" y2="-40" stroke="#c8c8c8" stroke-width="0.5"/>
    <line x1="-40" y1="-34" x2="40" y2="-34" stroke="#c8c8c8" stroke-width="0.5"/>
    <line x1="-36" y1="-28" x2="36" y2="-28" stroke="#c8c8c8" stroke-width="0.5"/>
    <line x1="-30" y1="-22" x2="30" y2="-22" stroke="#c8c8c8" stroke-width="0.5"/>
    <line x1="-20" y1="-16" x2="20" y2="-16" stroke="#c8c8c8" stroke-width="0.5"/>
    <!-- O-Port throat (narrower version for 98) -->
    <path d="M -34,0 Q -26,14 -6,46" fill="none" stroke="url(#pt98-frame)" stroke-width="3.5" stroke-linecap="round"/>
    <path d="M 34,0 Q 26,14 6,46" fill="none" stroke="url(#pt98-frame)" stroke-width="3.5" stroke-linecap="round"/>
    <!-- O-port holes (smaller) -->
    <ellipse cx="-18" cy="12" rx="4" ry="6" fill="none" stroke="#6B2D8B" stroke-width="1.8"/>
    <ellipse cx="18" cy="12" rx="4" ry="6" fill="none" stroke="#6B2D8B" stroke-width="1.8"/>
    <line x1="-10" y1="18" x2="10" y2="18" stroke="#FFFFFF" stroke-width="1.5" stroke-linecap="round"/>
    <!-- Shaft -->
    <rect x="-4" y="46" width="8" height="48" rx="2" fill="#6B2D8B" opacity="0.9"/>
    <rect x="-2" y="48" width="1.5" height="44" rx="1" fill="#fff" opacity="0.15"/>
    <!-- Handle - white (Prince signature) -->
    <rect x="-6" y="94" width="12" height="60" rx="3" fill="#FFFFFF" stroke="#ddd" stroke-width="0.5"/>
    <line x1="-4" y1="102" x2="4" y2="102" stroke="#ddd" stroke-width="0.7"/>
    <line x1="-4" y1="110" x2="4" y2="110" stroke="#ddd" stroke-width="0.7"/>
    <line x1="-4" y1="118" x2="4" y2="118" stroke="#ddd" stroke-width="0.7"/>
    <line x1="-4" y1="126" x2="4" y2="126" stroke="#ddd" stroke-width="0.7"/>
    <line x1="-4" y1="134" x2="4" y2="134" stroke="#ddd" stroke-width="0.7"/>
    <line x1="-4" y1="142" x2="4" y2="142" stroke="#ddd" stroke-width="0.7"/>
    <rect x="-7" y="151" width="14" height="6" rx="2.5" fill="#6B2D8B"/>
    <rect x="-6" y="94" width="12" height="5" rx="2" fill="#6B2D8B" opacity="0.8"/>
    <text x="0" y="101" text-anchor="middle" font-family="Arial,sans-serif" font-size="4" font-weight="bold" fill="#fff" letter-spacing="0.5">P</text>
  </g>
</svg>