<svg xmlns="http://www.w3.org/2000/svg" viewBox="0 0 300 400" width="300" height="400">
  <defs>
    <linearGradient id="pb-frame" x1="0" y1="0" x2="1" y2="1">
      <stop offset="0%" stop-color="#6B2D8B"/>
      <stop offset="50%" stop-color="#8B3DB0"/>
      <stop offset="100%" stop-color="#6B2D8B"/>
    </linearGradient>
  </defs>
  <ellipse cx="150" cy="380" rx="45" ry="6" fill="#e0e0e0" opacity="0.5"/>
  <g transform="translate(150,200)">
    <!-- Head 100sq.in oversize power, thick beam 24mm+ -->
    <ellipse cx="0" cy="-70" rx="54" ry="74" fill="none" stroke="url(#pb-frame)" stroke-width="7"/>
    <ellipse cx="0" cy="-70" rx="50" ry="70" fill="none" stroke="#6B2D8B" stroke-width="0.8" opacity="0.2"/>
    <!-- Yellow smiley accent -->
    <path d="M -36,-142 Q 0,-150 36,-142" fill="none" stroke="#FFD700" stroke-width="3" stroke-linecap="round"/>
    <!-- Strings 16x19 wide gaps (power frame) -->
    <line x1="-44" y1="-120" x2="-44" y2="-20" stroke="#d0d0d0" stroke-width="0.6"/>
    <line x1="-37" y1="-130" x2="-37" y2="-10" stroke="#d0d0d0" stroke-width="0.6"/>
    <line x1="-30" y1="-136" x2="-30" y2="-4" stroke="#d0d0d0" stroke-width="0.6"/>
    <line x1="-23" y1="-139" x2="-23" y2="-1" stroke="#d0d0d0" stroke-width="0.6"/>
    <line x1="-16" y1="-141" x2="-16" y2="1" stroke="#d0d0d0" stroke-width="0.6"/>
    <line x1="-9" y1="-142" x2="-9" y2="2" stroke="#d0d0d0" stroke-width="0.6"/>
    <line x1="-2" y1="-143" x2="-2" y2="3" stroke="#d0d0d0" stroke-width="0.6"/>
    <line x1="5" y1="-143" x2="5" y2="3" stroke="#d0d0d0" stroke-width="0.6"/>
    <line x1="12" y1="-142" x2="12" y2="2" stroke="#d0d0d0" stroke-width="0.6"/>
    <line x1="19" y1="-141" x2="19" y2="1" stroke="#d0d0d0" stroke-width="0.6"/>
    <line x1="26" y1="-139" x2="26" y2="-1" stroke="#d0d0d0" stroke-width="0.6"/>
    <line x1="33" y1="-136" x2="33" y2="-4" stroke="#d0d0d0" stroke-width="0.6"/>
    <line x1="40" y1="-130" x2="40" y2="-10" stroke="#d0d0d0" stroke-width="0.6"/>
    <line x1="47" y1="-120" x2="47" y2="-20" stroke="#d0d0d0" stroke-width="0.6"/>
    <line x1="-50" y1="-108" x2="-50" y2="-32" stroke="#d0d0d0" stroke-width="0.6"/>
    <line x1="50" y1="-108" x2="50" y2="-32" stroke="#d0d0d0" stroke-width="0.6"/>
    <!-- Crosses 19 -->
    <line x1="-50" y1="-134" x2="50" y2="-134" stroke="#d0d0d0" stroke-width="0.6"/>
    <line x1="-52" y1="-127" x2="52" y2="-127" stroke="#d0d0d0" stroke-width="0.6"/>
    <line x1="-53" y1="-120" x2="53" y2="-120" stroke="#d0d0d0" stroke-width="0.6"/>
    <line x1="-54" y1="-113" x2="54" y2="-113" stroke="#d0d0d0" stroke-width="0.6"/>
    <line x1="-54" y1="-106" x2="54" y2="-106" stroke="#d0d0d0" stroke-width="0.6"/>
    <line x1="-54" y1="-99" x2="54" y2="-99" stroke="#d0d0d0" stroke-width="0.6"/>
    <line x1="-54" y1="-92" x2="54" y2="-92" stroke="#d0d0d0" stroke-width="0.6"/>
    <line x1="-54" y1="-85" x2="54" y2="-85" stroke="#d0d0d0" stroke-width="0.6"/>
    <line x1="-54" y1="-78" x2="54" y2="-78" stroke="#d0d0d0" stroke-width="0.6"/>
    <line x1="-54" y1="-71" x2="54" y2="-71" stroke="#d0d0d0" stroke-width="0.6"/>
    <line x1="-54" y1="-64" x2="54" y2="-64" stroke="#d0d0d0" stroke-width="0.6"/>
    <line x1="-54" y1="-57" x2="54" y2="-57" stroke="#d0d0d0" stroke-width="0.6"/>
    <line x1="-53" y1="-50" x2="53" y2="-50" stroke="#d0d0d0" stroke-width="0.6"/>
    <line x1="-52" y1="-43" x2="52" y2="-43" stroke="#d0d0d0" stroke-width="0.6"/>
    <line x1="-50" y1="-36" x2="50" y2="-36" stroke="#d0d0d0" stroke-width="0.6"/>
    <line x1="-48" y1="-29" x2="48" y2="-29" stroke="#d0d0d0" stroke-width="0.6"/>
    <line x1="-44" y1="-22" x2="44" y2="-22" stroke="#d0d0d0" stroke-width="0.6"/>
    <line x1="-38" y1="-15" x2="38" y2="-15" stroke="#d0d0d0" stroke-width="0.6"/>
    <line x1="-28" y1="-8" x2="28" y2="-8" stroke="#d0d0d0" stroke-width="0.6"/>
    <!-- O-Port throat (wider Beast version) -->
    <path d="M -40,4 Q -30,22 -6,50" fill="none" stroke="url(#pb-frame)" stroke-width="5" stroke-linecap="round"/>
    <path d="M 40,4 Q 30,22 6,50" fill="none" stroke="url(#pb-frame)" stroke-width="5" stroke-linecap="round"/>
    <!-- Large O-port holes -->
    <ellipse cx="-22" cy="16" rx="6" ry="8" fill="none" stroke="#FFD700" stroke-width="2"/>
    <ellipse cx="22" cy="16" rx="6" ry="8" fill="none" stroke="#FFD700" stroke-width="2"/>
    <!-- Shaft -->
    <rect x="-4" y="50" width="8" height="44" rx="2" fill="#6B2D8B" opacity="0.9"/>
    <rect x="-2" y="52" width="1.5" height="40" rx="1" fill="#FFD700" opacity="0.2"/>
    <!-- Handle - white -->
    <rect x="-6" y="94" width="12" height="60" rx="3" fill="#FFFFFF" stroke="#ddd" stroke-width="0.5"/>
    <line x1="-4" y1="102" x2="4" y2="102" stroke="#ddd" stroke-width="0.7"/>
    <line x1="-4" y1="110" x2="4" y2="110" stroke="#ddd" stroke-width="0.7"/>
    <line x1="-4" y1="118" x2="4" y2="118" stroke="#ddd" stroke-width="0.7"/>
    <line x1="-4" y1="126" x2="4" y2="126" stroke="#ddd" stroke-width="0.7"/>
    <line x1="-4" y1="134" x2="4" y2="134" stroke="#ddd" stroke-width="0.7"/>
    <line x1="-4" y1="142" x2="4" y2="142" stroke="#ddd" stroke-width="0.7"/>
    <rect x="-7" y="151" width="14" height="6" rx="2.5" fill="#FFD700"/>
    <rect x="-6" y="94" width="12" height="5" rx="2" fill="#FFD700" opacity="0.8"/>
    <text x="0" y="101" text-anchor="middle" font-family="Arial,sans-serif" font-size="4" font-weight="bold" fill="#6B2D8B" letter-spacing="0.5">P</text>
  </g>
</svg>