<svg xmlns="http://www.w3.org/2000/svg" viewBox="0 0 300 400" width="300" height="400">
  <defs>
    <linearGradient id="ws-frame" x1="0" y1="0" x2="1" y2="1">
      <stop offset="0%" stop-color="#1A1A1A"/>
      <stop offset="50%" stop-color="#111111"/>
      <stop offset="100%" stop-color="#1A1A1A"/>
    </linearGradient>
  </defs>
  <ellipse cx="150" cy="380" rx="45" ry="6" fill="#e0e0e0" opacity="0.5"/>
  <g transform="translate(150,200)">
    <!-- Head 104sq.in WIDE (rx=52), thick beam -->
    <ellipse cx="0" cy="-72" rx="52" ry="72" fill="none" stroke="url(#ws-frame)" stroke-width="6"/>
    <ellipse cx="0" cy="-72" rx="48" ry="68" fill="none" stroke="#1A1A1A" stroke-width="1" opacity="0.2"/>
    <!-- Lime green accent bumper -->
    <path d="M -50,-90 Q -55,-72 -50,-54" fill="none" stroke="#7CB342" stroke-width="2.5" stroke-linecap="round"/>
    <path d="M 50,-90 Q 55,-72 50,-54" fill="none" stroke="#7CB342" stroke-width="2.5" stroke-linecap="round"/>
    <path d="M -32,-142 Q 0,-148 32,-142" fill="none" stroke="#7CB342" stroke-width="2.5" stroke-linecap="round"/>
    <!-- Strings 16x19 -->
    <line x1="-42" y1="-122" x2="-42" y2="-22" stroke="#d0d0d0" stroke-width="0.6"/>
    <line x1="-36" y1="-130" x2="-36" y2="-14" stroke="#d0d0d0" stroke-width="0.6"/>
    <line x1="-30" y1="-135" x2="-30" y2="-9" stroke="#d0d0d0" stroke-width="0.6"/>
    <line x1="-24" y1="-138" x2="-24" y2="-6" stroke="#d0d0d0" stroke-width="0.6"/>
    <line x1="-18" y1="-140" x2="-18" y2="-4" stroke="#d0d0d0" stroke-width="0.6"/>
    <line x1="-12" y1="-142" x2="-12" y2="-2" stroke="#d0d0d0" stroke-width="0.6"/>
    <line x1="-6" y1="-143" x2="-6" y2="-1" stroke="#d0d0d0" stroke-width="0.6"/>
    <line x1="0" y1="-143" x2="0" y2="-1" stroke="#d0d0d0" stroke-width="0.6"/>
    <line x1="6" y1="-143" x2="6" y2="-1" stroke="#d0d0d0" stroke-width="0.6"/>
    <line x1="12" y1="-142" x2="12" y2="-2" stroke="#d0d0d0" stroke-width="0.6"/>
    <line x1="18" y1="-140" x2="18" y2="-4" stroke="#d0d0d0" stroke-width="0.6"/>
    <line x1="24" y1="-138" x2="24" y2="-6" stroke="#d0d0d0" stroke-width="0.6"/>
    <line x1="30" y1="-135" x2="30" y2="-9" stroke="#d0d0d0" stroke-width="0.6"/>
    <line x1="36" y1="-130" x2="36" y2="-14" stroke="#d0d0d0" stroke-width="0.6"/>
    <line x1="42" y1="-122" x2="42" y2="-22" stroke="#d0d0d0" stroke-width="0.6"/>
    <line x1="-48" y1="-112" x2="-48" y2="-32" stroke="#d0d0d0" stroke-width="0.6"/>
    <!-- Crosses 19 -->
    <line x1="-48" y1="-135" x2="48" y2="-135" stroke="#d0d0d0" stroke-width="0.6"/>
    <line x1="-50" y1="-128" x2="50" y2="-128" stroke="#d0d0d0" stroke-width="0.6"/>
    <line x1="-51" y1="-121" x2="51" y2="-121" stroke="#d0d0d0" stroke-width="0.6"/>
    <line x1="-52" y1="-114" x2="52" y2="-114" stroke="#d0d0d0" stroke-width="0.6"/>
    <line x1="-52" y1="-107" x2="52" y2="-107" stroke="#d0d0d0" stroke-width="0.6"/>
    <line x1="-52" y1="-100" x2="52" y2="-100" stroke="#d0d0d0" stroke-width="0.6"/>
    <line x1="-52" y1="-93" x2="52" y2="-93" stroke="#d0d0d0" stroke-width="0.6"/>
    <line x1="-52" y1="-86" x2="52" y2="-86" stroke="#d0d0d0" stroke-width="0.6"/>
    <line x1="-52" y1="-79" x2="52" y2="-79" stroke="#d0d0d0" stroke-width="0.6"/>
    <line x1="-52" y1="-72" x2="52" y2="-72" stroke="#d0d0d0" stroke-width="0.6"/>
    <line x1="-52" y1="-65" x2="52" y2="-65" stroke="#d0d0d0" stroke-width="0.6"/>
    <line x1="-52" y1="-58" x2="52" y2="-58" stroke="#d0d0d0" stroke-width="0.6"/>
    <line x1="-51" y1="-51" x2="51" y2="-51" stroke="#d0d0d0" stroke-width="0.6"/>
    <line x1="-50" y1="-44" x2="50" y2="-44" stroke="#d0d0d0" stroke-width="0.6"/>
    <line x1="-48" y1="-37" x2="48" y2="-37" stroke="#d0d0d0" stroke-width="0.6"/>
    <line x1="-46" y1="-30" x2="46" y2="-30" stroke="#d0d0d0" stroke-width="0.6"/>
    <line x1="-42" y1="-23" x2="42" y2="-23" stroke="#d0d0d0" stroke-width="0.6"/>
    <line x1="-36" y1="-16" x2="36" y2="-16" stroke="#d0d0d0" stroke-width="0.6"/>
    <line x1="-26" y1="-9" x2="26" y2="-9" stroke="#d0d0d0" stroke-width="0.6"/>
    <!-- Modern wide throat -->
    <path d="M -40,2 Q -30,16 -6,48" fill="none" stroke="url(#ws-frame)" stroke-width="5" stroke-linecap="round"/>
    <path d="M 40,2 Q 30,16 6,48" fill="none" stroke="url(#ws-frame)" stroke-width="5" stroke-linecap="round"/>
    <path d="M -30,14 Q 0,24 30,14" fill="none" stroke="#7CB342" stroke-width="2.5" stroke-linecap="round"/>
    <!-- Shaft -->
    <rect x="-4.5" y="48" width="9" height="46" rx="2" fill="#1A1A1A" opacity="0.9"/>
    <rect x="-2" y="50" width="1.5" height="42" rx="1" fill="#7CB342" opacity="0.2"/>
    <!-- Handle -->
    <rect x="-6" y="94" width="12" height="60" rx="3" fill="#1A1A1A"/>
    <line x1="-4" y1="102" x2="4" y2="102" stroke="#333" stroke-width="0.7"/>
    <line x1="-4" y1="110" x2="4" y2="110" stroke="#333" stroke-width="0.7"/>
    <line x1="-4" y1="118" x2="4" y2="118" stroke="#333" stroke-width="0.7"/>
    <line x1="-4" y1="126" x2="4" y2="126" stroke="#333" stroke-width="0.7"/>
    <line x1="-4" y1="134" x2="4" y2="134" stroke="#333" stroke-width="0.7"/>
    <line x1="-4" y1="142" x2="4" y2="142" stroke="#333" stroke-width="0.7"/>
    <rect x="-7" y="151" width="14" height="6" rx="2.5" fill="#111"/>
    <rect x="-6" y="94" width="12" height="5" rx="2" fill="#7CB342" opacity="0.8"/>
    <text x="0" y="101" text-anchor="middle" font-family="Arial,sans-serif" font-size="4" font-weight="bold" fill="#7CB342" letter-spacing="1">W</text>
  </g>
</svg>