<svg xmlns="http://www.w3.org/2000/svg" viewBox="0 0 300 400" width="300" height="400">
  <defs>
    <linearGradient id="yez-frame" x1="0" y1="0" x2="0" y2="1">
      <stop offset="0%" stop-color="#0055A5"/>
      <stop offset="50%" stop-color="#003D78"/>
      <stop offset="100%" stop-color="#0055A5"/>
    </linearGradient>
  </defs>
  <ellipse cx="150" cy="380" rx="45" ry="6" fill="#e0e0e0" opacity="0.5"/>
  <g transform="translate(150,200)">
    <!-- Yonex ISOMETRIC squared head 105sq.in VERY WIDE (rx=54) -->
    <rect x="-54" y="-144" width="108" height="142" rx="30" ry="30" fill="none" stroke="url(#yez-frame)" stroke-width="6"/>
    <rect x="-50" y="-140" width="100" height="136" rx="28" ry="28" fill="none" stroke="#0055A5" stroke-width="0.8" opacity="0.25"/>
    <!-- Green accents -->
    <path d="M -54,-114 L -54,-28" fill="none" stroke="#00A651" stroke-width="2.5" stroke-linecap="round"/>
    <path d="M 54,-114 L 54,-28" fill="none" stroke="#00A651" stroke-width="2.5" stroke-linecap="round"/>
    <path d="M -34,-144 L 34,-144" fill="none" stroke="#00A651" stroke-width="2.5" stroke-linecap="round"/>
    <!-- Strings 16x19 -->
    <line x1="-44" y1="-132" x2="-44" y2="-14" stroke="#d0d0d0" stroke-width="0.6"/>
    <line x1="-38" y1="-136" x2="-38" y2="-10" stroke="#d0d0d0" stroke-width="0.6"/>
    <line x1="-32" y1="-138" x2="-32" y2="-8" stroke="#d0d0d0" stroke-width="0.6"/>
    <line x1="-26" y1="-140" x2="-26" y2="-6" stroke="#d0d0d0" stroke-width="0.6"/>
    <line x1="-20" y1="-141" x2="-20" y2="-5" stroke="#d0d0d0" stroke-width="0.6"/>
    <line x1="-14" y1="-142" x2="-14" y2="-4" stroke="#d0d0d0" stroke-width="0.6"/>
    <line x1="-8" y1="-142" x2="-8" y2="-4" stroke="#d0d0d0" stroke-width="0.6"/>
    <line x1="-2" y1="-143" x2="-2" y2="-3" stroke="#d0d0d0" stroke-width="0.6"/>
    <line x1="4" y1="-143" x2="4" y2="-3" stroke="#d0d0d0" stroke-width="0.6"/>
    <line x1="10" y1="-142" x2="10" y2="-4" stroke="#d0d0d0" stroke-width="0.6"/>
    <line x1="16" y1="-142" x2="16" y2="-4" stroke="#d0d0d0" stroke-width="0.6"/>
    <line x1="22" y1="-141" x2="22" y2="-5" stroke="#d0d0d0" stroke-width="0.6"/>
    <line x1="28" y1="-140" x2="28" y2="-6" stroke="#d0d0d0" stroke-width="0.6"/>
    <line x1="34" y1="-138" x2="34" y2="-8" stroke="#d0d0d0" stroke-width="0.6"/>
    <line x1="40" y1="-136" x2="40" y2="-10" stroke="#d0d0d0" stroke-width="0.6"/>
    <line x1="46" y1="-132" x2="46" y2="-14" stroke="#d0d0d0" stroke-width="0.6"/>
    <!-- Crosses 19 -->
    <line x1="-50" y1="-136" x2="50" y2="-136" stroke="#d0d0d0" stroke-width="0.6"/>
    <line x1="-52" y1="-129" x2="52" y2="-129" stroke="#d0d0d0" stroke-width="0.6"/>
    <line x1="-53" y1="-122" x2="53" y2="-122" stroke="#d0d0d0" stroke-width="0.6"/>
    <line x1="-54" y1="-115" x2="54" y2="-115" stroke="#d0d0d0" stroke-width="0.6"/>
    <line x1="-54" y1="-108" x2="54" y2="-108" stroke="#d0d0d0" stroke-width="0.6"/>
    <line x1="-54" y1="-101" x2="54" y2="-101" stroke="#d0d0d0" stroke-width="0.6"/>
    <line x1="-54" y1="-94" x2="54" y2="-94" stroke="#d0d0d0" stroke-width="0.6"/>
    <line x1="-54" y1="-87" x2="54" y2="-87" stroke="#d0d0d0" stroke-width="0.6"/>
    <line x1="-54" y1="-80" x2="54" y2="-80" stroke="#d0d0d0" stroke-width="0.6"/>
    <line x1="-54" y1="-73" x2="54" y2="-73" stroke="#d0d0d0" stroke-width="0.6"/>
    <line x1="-54" y1="-66" x2="54" y2="-66" stroke="#d0d0d0" stroke-width="0.6"/>
    <line x1="-54" y1="-59" x2="54" y2="-59" stroke="#d0d0d0" stroke-width="0.6"/>
    <line x1="-53" y1="-52" x2="53" y2="-52" stroke="#d0d0d0" stroke-width="0.6"/>
    <line x1="-52" y1="-45" x2="52" y2="-45" stroke="#d0d0d0" stroke-width="0.6"/>
    <line x1="-50" y1="-38" x2="50" y2="-38" stroke="#d0d0d0" stroke-width="0.6"/>
    <line x1="-48" y1="-31" x2="48" y2="-31" stroke="#d0d0d0" stroke-width="0.6"/>
    <line x1="-44" y1="-24" x2="44" y2="-24" stroke="#d0d0d0" stroke-width="0.6"/>
    <line x1="-38" y1="-17" x2="38" y2="-17" stroke="#d0d0d0" stroke-width="0.6"/>
    <line x1="-28" y1="-10" x2="28" y2="-10" stroke="#d0d0d0" stroke-width="0.6"/>
    <!-- Wide Yonex throat -->
    <path d="M -40,2 Q -28,20 -6,48" fill="none" stroke="url(#yez-frame)" stroke-width="5" stroke-linecap="round"/>
    <path d="M 40,2 Q 28,20 6,48" fill="none" stroke="url(#yez-frame)" stroke-width="5" stroke-linecap="round"/>
    <path d="M -30,16 Q 0,26 30,16" fill="none" stroke="#00A651" stroke-width="2.5" stroke-linecap="round"/>
    <!-- Shaft -->
    <rect x="-4.5" y="48" width="9" height="46" rx="2" fill="#0055A5" opacity="0.9"/>
    <rect x="-2" y="50" width="1.5" height="42" rx="1" fill="#00A651" opacity="0.2"/>
    <!-- Handle -->
    <rect x="-6" y="94" width="12" height="60" rx="3" fill="#1A1A1A"/>
    <line x1="-4" y1="102" x2="4" y2="102" stroke="#333" stroke-width="0.7"/>
    <line x1="-4" y1="110" x2="4" y2="110" stroke="#333" stroke-width="0.7"/>
    <line x1="-4" y1="118" x2="4" y2="118" stroke="#333" stroke-width="0.7"/>
    <line x1="-4" y1="126" x2="4" y2="126" stroke="#333" stroke-width="0.7"/>
    <line x1="-4" y1="134" x2="4" y2="134" stroke="#333" stroke-width="0.7"/>
    <line x1="-4" y1="142" x2="4" y2="142" stroke="#333" stroke-width="0.7"/>
    <rect x="-7" y="151" width="14" height="6" rx="2.5" fill="#111"/>
    <rect x="-6" y="94" width="12" height="5" rx="2" fill="#00A651" opacity="0.7"/>
    <text x="0" y="101" text-anchor="middle" font-family="Arial,sans-serif" font-size="4" font-weight="bold" fill="#fff" letter-spacing="0.5">Y</text>
  </g>
</svg>