<svg xmlns="http://www.w3.org/2000/svg" viewBox="0 0 300 400" width="300" height="400">
  <defs>
    <linearGradient id="yvc-frame" x1="0" y1="0" x2="1" y2="1">
      <stop offset="0%" stop-color="#CC0000"/>
      <stop offset="50%" stop-color="#990000"/>
      <stop offset="100%" stop-color="#CC0000"/>
    </linearGradient>
  </defs>
  <ellipse cx="150" cy="380" rx="45" ry="6" fill="#e0e0e0" opacity="0.5"/>
  <g transform="translate(150,200)">
    <!-- Yonex ISOMETRIC squared head 98sq.in -->
    <rect x="-46" y="-140" width="92" height="136" rx="26" ry="26" fill="none" stroke="url(#yvc-frame)" stroke-width="5"/>
    <rect x="-43" y="-137" width="86" height="130" rx="24" ry="24" fill="none" stroke="#CC0000" stroke-width="0.8" opacity="0.25"/>
    <!-- Black accents on sides -->
    <path d="M -46,-112 L -46,-28" fill="none" stroke="#1A1A1A" stroke-width="2" stroke-linecap="round"/>
    <path d="M 46,-112 L 46,-28" fill="none" stroke="#1A1A1A" stroke-width="2" stroke-linecap="round"/>
    <path d="M -28,-140 L 28,-140" fill="none" stroke="#1A1A1A" stroke-width="2" stroke-linecap="round"/>
    <!-- Strings 16x19 -->
    <line x1="-36" y1="-130" x2="-36" y2="-14" stroke="#d0d0d0" stroke-width="0.6"/>
    <line x1="-30" y1="-134" x2="-30" y2="-10" stroke="#d0d0d0" stroke-width="0.6"/>
    <line x1="-24" y1="-136" x2="-24" y2="-8" stroke="#d0d0d0" stroke-width="0.6"/>
    <line x1="-18" y1="-137" x2="-18" y2="-7" stroke="#d0d0d0" stroke-width="0.6"/>
    <line x1="-12" y1="-138" x2="-12" y2="-6" stroke="#d0d0d0" stroke-width="0.6"/>
    <line x1="-6" y1="-138" x2="-6" y2="-6" stroke="#d0d0d0" stroke-width="0.6"/>
    <line x1="0" y1="-139" x2="0" y2="-5" stroke="#d0d0d0" stroke-width="0.6"/>
    <line x1="6" y1="-138" x2="6" y2="-6" stroke="#d0d0d0" stroke-width="0.6"/>
    <line x1="12" y1="-138" x2="12" y2="-6" stroke="#d0d0d0" stroke-width="0.6"/>
    <line x1="18" y1="-137" x2="18" y2="-7" stroke="#d0d0d0" stroke-width="0.6"/>
    <line x1="24" y1="-136" x2="24" y2="-8" stroke="#d0d0d0" stroke-width="0.6"/>
    <line x1="30" y1="-134" x2="30" y2="-10" stroke="#d0d0d0" stroke-width="0.6"/>
    <line x1="36" y1="-130" x2="36" y2="-14" stroke="#d0d0d0" stroke-width="0.6"/>
    <line x1="-42" y1="-124" x2="-42" y2="-20" stroke="#d0d0d0" stroke-width="0.6"/>
    <line x1="42" y1="-124" x2="42" y2="-20" stroke="#d0d0d0" stroke-width="0.6"/>
    <line x1="-44" y1="-118" x2="-44" y2="-26" stroke="#d0d0d0" stroke-width="0.6"/>
    <!-- Crosses 19 -->
    <line x1="-44" y1="-132" x2="44" y2="-132" stroke="#d0d0d0" stroke-width="0.6"/>
    <line x1="-45" y1="-125" x2="45" y2="-125" stroke="#d0d0d0" stroke-width="0.6"/>
    <line x1="-46" y1="-118" x2="46" y2="-118" stroke="#d0d0d0" stroke-width="0.6"/>
    <line x1="-46" y1="-111" x2="46" y2="-111" stroke="#d0d0d0" stroke-width="0.6"/>
    <line x1="-46" y1="-104" x2="46" y2="-104" stroke="#d0d0d0" stroke-width="0.6"/>
    <line x1="-46" y1="-97" x2="46" y2="-97" stroke="#d0d0d0" stroke-width="0.6"/>
    <line x1="-46" y1="-90" x2="46" y2="-90" stroke="#d0d0d0" stroke-width="0.6"/>
    <line x1="-46" y1="-83" x2="46" y2="-83" stroke="#d0d0d0" stroke-width="0.6"/>
    <line x1="-46" y1="-76" x2="46" y2="-76" stroke="#d0d0d0" stroke-width="0.6"/>
    <line x1="-46" y1="-69" x2="46" y2="-69" stroke="#d0d0d0" stroke-width="0.6"/>
    <line x1="-46" y1="-62" x2="46" y2="-62" stroke="#d0d0d0" stroke-width="0.6"/>
    <line x1="-46" y1="-55" x2="46" y2="-55" stroke="#d0d0d0" stroke-width="0.6"/>
    <line x1="-46" y1="-48" x2="46" y2="-48" stroke="#d0d0d0" stroke-width="0.6"/>
    <line x1="-45" y1="-41" x2="45" y2="-41" stroke="#d0d0d0" stroke-width="0.6"/>
    <line x1="-45" y1="-34" x2="45" y2="-34" stroke="#d0d0d0" stroke-width="0.6"/>
    <line x1="-44" y1="-27" x2="44" y2="-27" stroke="#d0d0d0" stroke-width="0.6"/>
    <line x1="-42" y1="-20" x2="42" y2="-20" stroke="#d0d0d0" stroke-width="0.6"/>
    <line x1="-38" y1="-13" x2="38" y2="-13" stroke="#d0d0d0" stroke-width="0.6"/>
    <line x1="-30" y1="-6" x2="30" y2="-6" stroke="#d0d0d0" stroke-width="0.6"/>
    <!-- Yonex throat -->
    <path d="M -34,0 Q -24,18 -6,48" fill="none" stroke="url(#yvc-frame)" stroke-width="4.5" stroke-linecap="round"/>
    <path d="M 34,0 Q 24,18 6,48" fill="none" stroke="url(#yvc-frame)" stroke-width="4.5" stroke-linecap="round"/>
    <path d="M -26,14 Q 0,22 26,14" fill="none" stroke="#1A1A1A" stroke-width="2" stroke-linecap="round"/>
    <!-- Shaft -->
    <rect x="-4" y="48" width="8" height="46" rx="2" fill="#CC0000" opacity="0.9"/>
    <rect x="-2" y="50" width="1.5" height="42" rx="1" fill="#1A1A1A" opacity="0.2"/>
    <!-- Handle -->
    <rect x="-6" y="94" width="12" height="60" rx="3" fill="#1A1A1A"/>
    <line x1="-4" y1="102" x2="4" y2="102" stroke="#333" stroke-width="0.7"/>
    <line x1="-4" y1="110" x2="4" y2="110" stroke="#333" stroke-width="0.7"/>
    <line x1="-4" y1="118" x2="4" y2="118" stroke="#333" stroke-width="0.7"/>
    <line x1="-4" y1="126" x2="4" y2="126" stroke="#333" stroke-width="0.7"/>
    <line x1="-4" y1="134" x2="4" y2="134" stroke="#333" stroke-width="0.7"/>
    <line x1="-4" y1="142" x2="4" y2="142" stroke="#333" stroke-width="0.7"/>
    <rect x="-7" y="151" width="14" height="6" rx="2.5" fill="#111"/>
    <rect x="-6" y="94" width="12" height="5" rx="2" fill="#CC0000" opacity="0.8"/>
    <text x="0" y="101" text-anchor="middle" font-family="Arial,sans-serif" font-size="4" font-weight="bold" fill="#CC0000" letter-spacing="0.5">Y</text>
  </g>
</svg>