<svg xmlns="http://www.w3.org/2000/svg" viewBox="0 0 500 858">
<defs><clipPath id="babolat-pure-aero-2026-string-bed"><ellipse cx="337" cy="235" rx="137" ry="178" transform="rotate(0 337 235)"/></clipPath></defs>
<g clip-path="url(#babolat-pure-aero-2026-string-bed)" transform="rotate(0 337 235)" fill="none" stroke="#fff" stroke-width="1.5" stroke-linecap="round">
<line x1="235" y1="116.17" x2="235" y2="353.83"/>
<line x1="249" y1="98.58" x2="249" y2="371.42"/>
<line x1="263" y1="85.2" x2="263" y2="384.8"/>
<line x1="277" y1="74.98" x2="277" y2="395.02"/>
<line x1="291" y1="67.33" x2="291" y2="402.67"/>
<line x1="306" y1="61.62" x2="306" y2="408.38"/>
<line x1="320" y1="58.38" x2="320" y2="411.62"/>
<line x1="333" y1="57.08" x2="333" y2="412.92"/>
<line x1="344" y1="57.23" x2="344" y2="412.77"/>
<line x1="357" y1="58.91" x2="357" y2="411.09"/>
<line x1="370" y1="62.24" x2="370" y2="407.76"/>
<line x1="383" y1="67.33" x2="383" y2="402.67"/>
<line x1="398" y1="75.62" x2="398" y2="394.38"/>
<line x1="411" y1="85.2" x2="411" y2="384.8"/>
<line x1="428" y1="101.94" x2="428" y2="368.06"/>
<line x1="449" y1="132.49" x2="449" y2="337.51"/>
<line x1="252.39" y1="95" x2="421.61" y2="95"/>
<line x1="239.47" y1="110" x2="434.53" y2="110"/>
<line x1="228.69" y1="126" x2="445.31" y2="126"/>
<line x1="220.66" y1="141" x2="453.34" y2="141"/>
<line x1="213.85" y1="157" x2="460.15" y2="157"/>
<line x1="208.87" y1="172" x2="465.13" y2="172"/>
<line x1="204.86" y1="188" x2="469.14" y2="188"/>
<line x1="202.09" y1="204" x2="471.91" y2="204"/>
<line x1="200.55" y1="219" x2="473.45" y2="219"/>
<line x1="200" y1="235" x2="474" y2="235"/>
<line x1="200.49" y1="250" x2="473.51" y2="250"/>
<line x1="202.09" y1="266" x2="471.91" y2="266"/>
<line x1="204.25" y1="279" x2="469.75" y2="279"/>
<line x1="207.48" y1="293" x2="466.52" y2="293"/>
<line x1="212.05" y1="308" x2="461.95" y2="308"/>
<line x1="217.91" y1="323" x2="456.09" y2="323"/>
<line x1="225.27" y1="338" x2="448.73" y2="338"/>
<line x1="233.75" y1="352" x2="440.25" y2="352"/>
<line x1="252.39" y1="375" x2="421.61" y2="375"/>
</g>
</svg>
