<svg viewBox="0 0 500 857">
<defs><clipPath id="babolat-pure-drive-98-gen11-2025-string-bed"><ellipse cx="336" cy="235" rx="131" ry="176" transform="rotate(0 336 235)"/></clipPath></defs>
<g clip-path="url(#babolat-pure-drive-98-gen11-2025-string-bed)" transform="rotate(0 336 235)" fill="none" stroke="#fff" stroke-width="1.5" stroke-linecap="round">
<line x1="244" y1="109.71" x2="244" y2="360.29"/>
<line x1="258" y1="93.6" x2="258" y2="376.4"/>
<line x1="272" y1="81.43" x2="272" y2="388.57"/>
<line x1="286" y1="72.32" x2="286" y2="397.68"/>
<line x1="298" y1="66.57" x2="298" y2="403.43"/>
<line x1="309" y1="62.78" x2="309" y2="407.22"/>
<line x1="320" y1="60.32" x2="320" y2="409.68"/>
<line x1="331" y1="59.13" x2="331" y2="410.87"/>
<line x1="342" y1="59.18" x2="342" y2="410.82"/>
<line x1="352" y1="60.32" x2="352" y2="409.68"/>
<line x1="363" y1="62.78" x2="363" y2="407.22"/>
<line x1="374" y1="66.57" x2="374" y2="403.43"/>
<line x1="387" y1="72.89" x2="387" y2="397.11"/>
<line x1="399" y1="80.69" x2="399" y2="389.31"/>
<line x1="412" y1="91.65" x2="412" y2="378.35"/>
<line x1="426" y1="107.11" x2="426" y2="362.89"/>
<line x1="268.7" y1="84" x2="403.3" y2="84"/>
<line x1="251.95" y1="100" x2="420.05" y2="100"/>
<line x1="239.48" y1="116" x2="432.52" y2="116"/>
<line x1="229.78" y1="132" x2="442.22" y2="132"/>
<line x1="222.12" y1="148" x2="449.88" y2="148"/>
<line x1="216.13" y1="164" x2="455.87" y2="164"/>
<line x1="211.56" y1="180" x2="460.44" y2="180"/>
<line x1="208.26" y1="196" x2="463.74" y2="196"/>
<line x1="206.12" y1="212" x2="465.88" y2="212"/>
<line x1="205.1" y1="228" x2="466.9" y2="228"/>
<line x1="205.17" y1="244" x2="466.83" y2="244"/>
<line x1="206.33" y1="260" x2="465.67" y2="260"/>
<line x1="208.6" y1="276" x2="463.4" y2="276"/>
<line x1="211.32" y1="289" x2="460.68" y2="289"/>
<line x1="215.49" y1="304" x2="456.51" y2="304"/>
<line x1="221.29" y1="320" x2="450.71" y2="320"/>
<line x1="230.32" y1="339" x2="441.68" y2="339"/>
<line x1="238.8" y1="353" x2="433.2" y2="353"/>
<line x1="244.54" y1="361" x2="427.46" y2="361"/>
<line x1="257.6" y1="376" x2="414.4" y2="376"/>
</g>
</svg>
