<svg viewBox="0 0 500 858">
<defs><clipPath id="babolat-pure-aero-98-2026-string-bed"><ellipse cx="335" cy="234" rx="132" ry="176" transform="rotate(0 335 234)"/></clipPath></defs>
<g clip-path="url(#babolat-pure-aero-98-2026-string-bed)" transform="rotate(0 335 234)" fill="none" stroke="#fff" stroke-width="1.5" stroke-linecap="round">
<line x1="240" y1="111.81" x2="240" y2="356.19"/>
<line x1="252" y1="97.15" x2="252" y2="370.85"/>
<line x1="264" y1="85.63" x2="264" y2="382.37"/>
<line x1="276" y1="76.56" x2="276" y2="391.44"/>
<line x1="288" y1="69.53" x2="288" y2="398.47"/>
<line x1="301" y1="63.94" x2="301" y2="404.06"/>
<line x1="313" y1="60.46" x2="313" y2="407.54"/>
<line x1="326" y1="58.41" x2="326" y2="409.59"/>
<line x1="337" y1="58.02" x2="337" y2="409.98"/>
<line x1="348" y1="58.86" x2="348" y2="409.14"/>
<line x1="360" y1="61.19" x2="360" y2="406.81"/>
<line x1="372" y1="65.06" x2="372" y2="402.94"/>
<line x1="384" y1="70.58" x2="384" y2="397.42"/>
<line x1="397" y1="78.62" x2="397" y2="389.38"/>
<line x1="409" y1="88.26" x2="409" y2="379.74"/>
<line x1="425" y1="105.25" x2="425" y2="362.75"/>
<line x1="255.01" y1="94" x2="414.99" y2="94"/>
<line x1="241.33" y1="110" x2="428.67" y2="110"/>
<line x1="230.77" y1="126" x2="439.23" y2="126"/>
<line x1="222.47" y1="142" x2="447.53" y2="142"/>
<line x1="215.94" y1="158" x2="454.06" y2="158"/>
<line x1="210.91" y1="174" x2="459.09" y2="174"/>
<line x1="207.19" y1="190" x2="462.81" y2="190"/>
<line x1="204.68" y1="206" x2="465.32" y2="206"/>
<line x1="203.31" y1="222" x2="466.69" y2="222"/>
<line x1="203.03" y1="238" x2="466.97" y2="238"/>
<line x1="203.86" y1="254" x2="466.14" y2="254"/>
<line x1="205.79" y1="270" x2="464.21" y2="270"/>
<line x1="208.89" y1="286" x2="461.11" y2="286"/>
<line x1="212.63" y1="300" x2="457.37" y2="300"/>
<line x1="217.04" y1="313" x2="452.96" y2="313"/>
<line x1="222.93" y1="327" x2="447.07" y2="327"/>
<line x1="230.2" y1="341" x2="439.8" y2="341"/>
<line x1="239.14" y1="355" x2="430.86" y2="355"/>
<line x1="248.55" y1="367" x2="421.45" y2="367"/>
<line x1="262.41" y1="381" x2="407.59" y2="381"/>
</g>
</svg>
