<svg xmlns="http://www.w3.org/2000/svg" viewBox="0 0 500 857">
<defs><clipPath id="dunlop-sx-300-tour-2025-string-bed"><ellipse cx="336" cy="231" rx="130" ry="177" transform="rotate(0 336 231)"/></clipPath></defs>
<g clip-path="url(#dunlop-sx-300-tour-2025-string-bed)" transform="rotate(0 336 231)" fill="none" stroke="#fff" stroke-width="1.5" stroke-linecap="round">
<line x1="232" y1="124.8" x2="232" y2="337.2"/>
<line x1="247" y1="101.98" x2="247" y2="360.02"/>
<line x1="262" y1="85.47" x2="262" y2="376.53"/>
<line x1="278" y1="72.59" x2="278" y2="389.41"/>
<line x1="292" y1="64.45" x2="292" y2="397.55"/>
<line x1="305" y1="59.11" x2="305" y2="402.89"/>
<line x1="319" y1="55.52" x2="319" y2="406.48"/>
<line x1="332" y1="54.08" x2="332" y2="407.92"/>
<line x1="346" y1="54.52" x2="346" y2="407.48"/>
<line x1="359" y1="56.79" x2="359" y2="405.21"/>
<line x1="373" y1="61.32" x2="373" y2="400.68"/>
<line x1="386" y1="67.62" x2="386" y2="394.38"/>
<line x1="400" y1="76.94" x2="400" y2="385.06"/>
<line x1="415" y1="90.43" x2="415" y2="371.57"/>
<line x1="431" y1="110.18" x2="431" y2="351.82"/>
<line x1="446" y1="136.67" x2="446" y2="325.33"/>
<line x1="257.42" y1="90" x2="414.58" y2="90"/>
<line x1="246.99" y1="102" x2="425.01" y2="102"/>
<line x1="240.44" y1="111" x2="431.56" y2="111"/>
<line x1="232.44" y1="124" x2="439.56" y2="124"/>
<line x1="228.24" y1="132" x2="443.76" y2="132"/>
<line x1="221.57" y1="147" x2="450.43" y2="147"/>
<line x1="215.98" y1="163" x2="456.02" y2="163"/>
<line x1="211.96" y1="178" x2="460.04" y2="178"/>
<line x1="209.36" y1="191" x2="462.64" y2="191"/>
<line x1="207.3" y1="206" x2="464.7" y2="206"/>
<line x1="206.3" y1="219" x2="465.7" y2="219"/>
<line x1="206.01" y1="233" x2="465.99" y2="233"/>
<line x1="206.53" y1="247" x2="465.47" y2="247"/>
<line x1="208.14" y1="263" x2="463.86" y2="263"/>
<line x1="210.67" y1="278" x2="461.33" y2="278"/>
<line x1="214.8" y1="295" x2="457.2" y2="295"/>
<line x1="220.04" y1="311" x2="451.96" y2="311"/>
<line x1="228.74" y1="331" x2="443.26" y2="331"/>
<line x1="239.77" y1="350" x2="432.23" y2="350"/>
</g>
</svg>
