<svg viewBox="0 0 500 857">
<defs><clipPath id="head-boom-pro-2026-string-bed"><ellipse cx="336" cy="214" rx="140" ry="190" transform="rotate(0 336 214)"/></clipPath></defs>
<g clip-path="url(#head-boom-pro-2026-string-bed)" transform="rotate(0 336 214)" fill="none" stroke="#fff" stroke-width="1.5" stroke-linecap="round">
<line x1="220" y1="107.62" x2="220" y2="320.38"/>
<line x1="235" y1="82.43" x2="235" y2="345.57"/>
<line x1="253" y1="60.99" x2="253" y2="367.01"/>
<line x1="271" y1="45.72" x2="271" y2="382.28"/>
<line x1="285" y1="37.06" x2="285" y2="390.94"/>
<line x1="299" y1="30.76" x2="299" y2="397.24"/>
<line x1="312" y1="26.81" x2="312" y2="401.19"/>
<line x1="324" y1="24.7" x2="324" y2="403.3"/>
<line x1="338" y1="24.02" x2="338" y2="403.98"/>
<line x1="353" y1="25.41" x2="353" y2="402.59"/>
<line x1="365" y1="28.12" x2="365" y2="399.88"/>
<line x1="380" y1="33.63" x2="380" y2="394.37"/>
<line x1="394" y1="41.07" x2="394" y2="386.93"/>
<line x1="411" y1="53.56" x2="411" y2="374.44"/>
<line x1="427" y1="69.61" x2="427" y2="358.39"/>
<line x1="443" y1="91.47" x2="443" y2="336.53"/>
<line x1="231.87" y1="87" x2="440.13" y2="87"/>
<line x1="220.31" y1="107" x2="451.69" y2="107"/>
<line x1="213.1" y1="123" x2="458.9" y2="123"/>
<line x1="207.37" y1="139" x2="464.63" y2="139"/>
<line x1="202.92" y1="155" x2="469.08" y2="155"/>
<line x1="199.81" y1="170" x2="472.19" y2="170"/>
<line x1="197.76" y1="184" x2="474.24" y2="184"/>
<line x1="196.44" y1="199" x2="475.56" y2="199"/>
<line x1="196" y1="213" x2="476" y2="213"/>
<line x1="196.44" y1="229" x2="475.56" y2="229"/>
<line x1="197.76" y1="244" x2="474.24" y2="244"/>
<line x1="199.81" y1="258" x2="472.19" y2="258"/>
<line x1="203.16" y1="274" x2="468.84" y2="274"/>
<line x1="207.37" y1="289" x2="464.63" y2="289"/>
<line x1="213.1" y1="305" x2="458.9" y2="305"/>
<line x1="220.82" y1="322" x2="451.18" y2="322"/>
<line x1="231.21" y1="340" x2="440.79" y2="340"/>
<line x1="245.53" y1="359" x2="426.47" y2="359"/>
<line x1="266.58" y1="379" x2="405.42" y2="379"/>
</g>
</svg>
