<svg xmlns="http://www.w3.org/2000/svg" viewBox="0 0 500 857">
<g fill="#fff">
<path d="M71.5 598 L71.5 600 L71.5 602 L71.5 604 L71.5 606 L70.5 608 L70.5 610 L70.5 612 L69.5 614 L69.5 616 L69.5 618 L69.5 620 L69.5 622 L69.5 624 L69.5 626 L69.5 628 L68.5 630 L68.5 632 L68.5 634 L67.5 636 L67.5 638 L68.5 640 L68.5 642 L68.5 644 L68.5 646 L67.5 648 L67.5 650 L68.5 652 L68.5 654 L68.5 656 L68.5 658 L68.5 660 L68.5 662 L68.5 664 L68.5 666 L68.5 668 L68.5 670 L68.5 672 L68.5 674 L68.5 676 L68.5 678 L68.5 680 L68.5 682 L68.5 684 L68.5 686 L68.5 688 L68.5 690 L68.5 692 L68.5 694 L68.5 696 L68.5 698 L68.5 700 L68.5 702 L68.5 704 L68.5 706 L68.5 708 L68.5 710 L68.5 712 L68.5 714 L68.5 716 L68.5 718 L68.5 720 L68.5 722 L68.5 724 L68.5 726 L68.5 728 L68.5 730 L67.5 732 L67.5 734 L68.5 736 L68.5 738 L68.5 740 L68.5 742 L68.5 744 L68.5 746 L68.5 748 L68.5 750 L68.5 752 L68.5 754 L68.5 756 L68.5 758 L68.5 760 L68.5 762 L67.5 764 L67.5 766 L67.5 768 L67.5 770 L67.5 772 L67.5 774 L67.5 776 L67.5 778 L67.5 780 L67.5 782 L67.5 784 L66.5 786 L66.5 788 L65.5 790 L65.5 792 L65.5 794 L64.5 796 L64.5 798 L64.5 800 L63.5 802 L62.5 804 L62.5 806 L63.5 808 L63.5 810 L65 812 L66.25 813 L67.5 814 L68.5 815 L69.5 816 L70.5 817 L72.16666666666667 817.3333333333334 L73.83333333333333 817.6666666666666 L75.5 818 L75.16666666666667 818.3333333333334 L74.83333333333333 818.6666666666666 L74.5 819 L91.5 819 L94.5 818.6666666666666 L97.5 818.3333333333334 L100.5 818 L101.16666666666667 817.6666666666666 L101.83333333333333 817.3333333333334 L102.5 817 L104.5 816 L106.375 815 L108.25 814 L109.25 813 L110.25 812 L111.5 810 L111.5 808 L112.5 806 L112.5 804 L112.5 802 L112.5 800 L112.5 798 L112.5 796 L111.5 794 L110.5 792 L110.5 790 L109.5 788 L110.5 786 L110.5 784 L110.5 782 L108.5 780 L108.5 778 L108.5 776 L108.5 774 L108.5 772 L108.5 770 L108.5 768 L108.5 766 L108.5 764 L108.5 762 L108.5 760 L108.5 758 L108.5 756 L108.5 754 L108.5 752 L108.5 750 L108.5 748 L108.5 746 L108.5 744 L108.5 742 L108.5 740 L108.5 738 L108.5 736 L108.5 734 L108.5 732 L108.5 730 L108.5 728 L108.5 726 L109.5 724 L109.5 722 L109.5 720 L109.5 718 L109.5 716 L108.5 714 L108.5 712 L109.5 710 L109.5 708 L110.5 706 L110.5 704 L109.5 702 L109.5 700 L109.5 698 L109.5 696 L109.5 694 L109.5 692 L108.5 690 L108.5 688 L109.5 686 L109.5 684 L109.5 682 L109.5 680 L109.5 678 L109.5 676 L109.5 674 L109.5 672 L109.5 670 L109.5 668 L109.5 666 L109.5 664 L109.5 662 L109.5 660 L110.5 658 L109.5 656 L109.5 654 L109.5 652 L109.5 650 L109.5 648 L109.5 646 L109.5 644 L109.5 642 L109.5 640 L109.5 638 L109.5 636 L109.5 634 L109.5 632 L109.5 630 L109.5 628 L109.5 626 L109.5 624 L108.5 622 L108.5 620 L108.5 618 L108.5 616 L107.5 614 L107.5 612 L107.5 610 L107.5 608 L107.5 606 L106.5 604 L106.5 602 L106.5 600 L106.5 598 Z"/>
<path d="M316.5 594 L316.5 596 L316.5 598 L316.5 600 L316.5 602 L316.5 604 L316.5 606 L315.5 608 L315.5 610 L315.5 612 L314.5 614 L314.5 616 L314.5 618 L314.5 620 L314.5 622 L314.5 624 L314.5 626 L314.5 628 L314.5 630 L314.5 632 L314.5 634 L314.5 636 L314.5 638 L314.5 640 L314.5 642 L314.5 644 L314.5 646 L314.5 648 L314.5 650 L314.5 652 L314.5 654 L314.5 656 L313.5 658 L313.5 660 L314.5 662 L314.5 664 L313.5 666 L313.5 668 L314.5 670 L314.5 672 L314.5 674 L314.5 676 L314.5 678 L314.5 680 L314.5 682 L313.5 684 L313.5 686 L314.5 688 L314.5 690 L314.5 692 L313.5 694 L313.5 696 L313.5 698 L313.5 700 L314.5 702 L314.5 704 L314.5 706 L314.5 708 L313.5 710 L313.5 712 L313.5 714 L313.5 716 L313.5 718 L313.5 720 L313.5 722 L313.5 724 L313.5 726 L313.5 728 L313.5 730 L313.5 732 L313.5 734 L313.5 736 L313.5 738 L313.5 740 L313.5 742 L313.5 744 L313.5 746 L313.5 748 L313.5 750 L313.5 752 L314.5 754 L314.5 756 L313.5 758 L314.5 760 L314.5 762 L314.5 764 L314.5 766 L313.5 768 L313.5 770 L313.5 772 L313.5 774 L313.5 776 L313.5 778 L312.5 780 L312.5 782 L312.5 784 L312.5 786 L311.5 788 L311.5 790 L310.5 792 L309.5 794 L309.5 796 L308.5 798 L308.5 800 L307.5 802 L306.5 804 L306.5 806 L307.5 808 L307.5 810 L308.5 812 L310 814 L311.1666666666667 814.6666666666666 L312.3333333333333 815.3333333333334 L313.5 816 L314.5 817 L313.5 818 L314.8333333333333 818.3333333333334 L316.1666666666667 818.6666666666666 L317.5 819 L346.5 819 L347.8333333333333 818.6666666666666 L349.1666666666667 818.3333333333334 L350.5 818 L352.5 817 L354.5 816 L355.5833333333333 815.3333333333334 L356.6666666666667 814.6666666666666 L357.75 814 L358.5 812 L359.5 810 L359.5 808 L360.5 806 L360.5 804 L359.5 802 L359.5 800 L357.5 798 L357.5 796 L357.5 794 L356.5 792 L356.5 790 L356.5 788 L356.5 786 L355.5 784 L354.5 782 L354.5 780 L354.5 778 L354.5 776 L354.5 774 L354.5 772 L353.5 770 L353.5 768 L354.5 766 L354.5 764 L354.5 762 L354.5 760 L354.5 758 L354.5 756 L354.5 754 L354.5 752 L353.5 750 L353.5 748 L353.5 746 L353.5 744 L353.5 742 L353.5 740 L353.5 738 L354.5 736 L354.5 734 L354.5 732 L354.5 730 L354.5 728 L354.5 726 L354.5 724 L354.5 722 L354.5 720 L354.5 718 L354.5 716 L354.5 714 L354.5 712 L354.5 710 L354.5 708 L354.5 706 L354.5 704 L354.5 702 L354.5 700 L354.5 698 L354.5 696 L354.5 694 L354.5 692 L354.5 690 L354.5 688 L354.5 686 L354.5 684 L354.5 682 L354.5 680 L354.5 678 L354.5 676 L354.5 674 L354.5 672 L354.5 670 L354.5 668 L354.5 666 L354.5 664 L354.5 662 L354.5 660 L354.5 658 L354.5 656 L354.5 654 L354.5 652 L354.5 650 L354.5 648 L354.5 646 L354.5 644 L354.5 642 L354.5 640 L354.5 638 L354.5 636 L354.5 634 L354.5 632 L355.5 630 L355.5 628 L355.5 626 L354.5 624 L354.5 622 L354.5 620 L354.5 618 L354.5 616 L354.5 614 L354.5 612 L353.5 610 L354.5 608 L354.5 606 L354.5 604 L354.5 602 L354.5 600 L354.5 598 L353.5 596 L353.5 594 Z"/>
</g>
</svg>
