<svg xmlns="http://www.w3.org/2000/svg" viewBox="0 0 500 857">
<defs><clipPath id="wilson-ultra-100-v5-2025-string-bed"><ellipse cx="335" cy="233" rx="144" ry="199" transform="rotate(0 335 233)"/></clipPath></defs>
<g clip-path="url(#wilson-ultra-100-v5-2025-string-bed)" transform="rotate(0 335 233)" fill="none" stroke="#fff" stroke-width="1.5" stroke-linecap="round">
<line x1="242" y1="81.07" x2="242" y2="384.93"/>
<line x1="256" y1="66.62" x2="256" y2="399.38"/>
<line x1="269" y1="56.13" x2="269" y2="409.87"/>
<line x1="282" y1="47.97" x2="282" y2="418.03"/>
<line x1="293" y1="42.65" x2="293" y2="423.35"/>
<line x1="305" y1="38.37" x2="305" y2="427.63"/>
<line x1="317" y1="35.56" x2="317" y2="430.44"/>
<line x1="328" y1="34.24" x2="328" y2="431.76"/>
<line x1="339" y1="34.08" x2="339" y2="431.92"/>
<line x1="350" y1="35.08" x2="350" y2="430.92"/>
<line x1="361" y1="37.27" x2="361" y2="428.73"/>
<line x1="373" y1="41.05" x2="373" y2="424.95"/>
<line x1="385" y1="46.38" x2="385" y2="419.62"/>
<line x1="398" y1="54.06" x2="398" y2="411.94"/>
<line x1="412" y1="64.84" x2="412" y2="401.16"/>
<line x1="425" y1="77.66" x2="425" y2="388.34"/>
<line x1="229.88" y1="97" x2="440.12" y2="97"/>
<line x1="218.52" y1="116" x2="451.48" y2="116"/>
<line x1="209.67" y1="135" x2="460.33" y2="135"/>
<line x1="202.52" y1="155" x2="467.48" y2="155"/>
<line x1="198.65" y1="169" x2="471.35" y2="169"/>
<line x1="195.81" y1="182" x2="474.19" y2="182"/>
<line x1="193.65" y1="195" x2="476.35" y2="195"/>
<line x1="192.14" y1="208" x2="477.86" y2="208"/>
<line x1="191.36" y1="219" x2="478.64" y2="219"/>
<line x1="191.01" y1="231" x2="478.99" y2="231"/>
<line x1="191.18" y1="243" x2="478.82" y2="243"/>
<line x1="191.88" y1="255" x2="478.12" y2="255"/>
<line x1="193.24" y1="268" x2="476.76" y2="268"/>
<line x1="195.25" y1="281" x2="474.75" y2="281"/>
<line x1="198.17" y1="295" x2="471.83" y2="295"/>
<line x1="203.47" y1="314" x2="466.53" y2="314"/>
<line x1="210.5" y1="333" x2="459.5" y2="333"/>
<line x1="219.58" y1="352" x2="450.42" y2="352"/>
<line x1="231.25" y1="371" x2="438.75" y2="371"/>
</g>
</svg>
