<svg xmlns="http://www.w3.org/2000/svg" viewBox="0 0 500 857">
<g fill="#fff">
<path d="M62.5 600 L62.5 602 L61.5 604 L61.5 606 L61.5 608 L61.5 610 L61.5 612 L60.5 614 L60.5 616 L60.5 618 L60.5 620 L60.5 622 L60.5 624 L59.5 626 L59.5 628 L59.5 630 L59.5 632 L59.5 634 L59.5 636 L59.5 638 L59.5 640 L59.5 642 L59.5 644 L59.5 646 L59.5 648 L59.5 650 L59.5 652 L59.5 654 L59.5 656 L59.5 658 L59.5 660 L59.5 662 L59.5 664 L59.5 666 L59.5 668 L59.5 670 L59.5 672 L59.5 674 L59.5 676 L59.5 678 L59.5 680 L59.5 682 L59.5 684 L59.5 686 L59.5 688 L59.5 690 L59.5 692 L59.5 694 L59.5 696 L59.5 698 L59.5 700 L59.5 702 L59.5 704 L59.5 706 L59.5 708 L59.5 710 L59.5 712 L59.5 714 L59.5 716 L58.5 718 L58.5 720 L58.5 722 L58.5 724 L58.5 726 L58.5 728 L58.5 730 L58.5 732 L58.5 734 L58.5 736 L58.5 738 L58.5 740 L58.5 742 L58.5 744 L58.5 746 L58.5 748 L58.5 750 L58.5 752 L58.5 754 L58.5 756 L58.5 758 L58.5 760 L58.5 762 L58.5 764 L58.5 766 L58.5 768 L58.5 770 L58.5 772 L58.5 774 L58.5 776 L58.5 778 L58.5 780 L58.5 782 L58.5 784 L58.5 786 L58.5 788 L58.5 790 L58.5 792 L58.5 794 L57.5 796 L57.5 798 L56.5 800 L56.5 802 L56.5 804 L55.5 806 L55.5 808 L55.5 810 L54.5 812 L54.5 814 L53.5 816 L53.5 818 L53.5 820 L53.5 822 L53.5 824 L54.875 825 L56.25 826 L57.375 827 L58.5 828 L59.5 829 L60.5 829.5 L61.5 830 L63.25 830.25 L65 830.5 L66.75 830.75 L68.5 831 L89.5 831 L90.75 830.75 L92 830.5 L93.25 830.25 L94.5 830 L95.5 829.5 L96.5 829 L98.5 828 L100.125 827 L101.75 826 L102.625 825 L103.5 824 L104.5 822 L104.5 820 L104.5 818 L104.5 816 L103.5 814 L103.5 812 L103.5 810 L102.5 808 L102.5 806 L102.5 804 L101.5 802 L101.5 800 L101.5 798 L100.5 796 L99.5 794 L99.5 792 L99.5 790 L99.5 788 L99.5 786 L99.5 784 L99.5 782 L99.5 780 L99.5 778 L99.5 776 L99.5 774 L99.5 772 L99.5 770 L99.5 768 L100.5 766 L100.5 764 L100.5 762 L100.5 760 L100.5 758 L100.5 756 L100.5 754 L100.5 752 L100.5 750 L100.5 748 L100.5 746 L100.5 744 L100.5 742 L100.5 740 L100.5 738 L100.5 736 L100.5 734 L100.5 732 L100.5 730 L100.5 728 L100.5 726 L100.5 724 L100.5 722 L100.5 720 L100.5 718 L100.5 716 L100.5 714 L100.5 712 L100.5 710 L100.5 708 L100.5 706 L100.5 704 L100.5 702 L100.5 700 L100.5 698 L100.5 696 L100.5 694 L100.5 692 L100.5 690 L100.5 688 L100.5 686 L100.5 684 L100.5 682 L100.5 680 L100.5 678 L100.5 676 L100.5 674 L100.5 672 L100.5 670 L100.5 668 L100.5 666 L100.5 664 L100.5 662 L100.5 660 L100.5 658 L100.5 656 L100.5 654 L100.5 652 L100.5 650 L100.5 648 L100.5 646 L100.5 644 L100.5 642 L100.5 640 L100.5 638 L100.5 636 L100.5 634 L100.5 632 L100.5 630 L100.5 628 L100.5 626 L100.5 624 L100.5 622 L100.5 620 L100.5 618 L100.5 616 L99.5 614 L99.5 612 L99.5 610 L99.5 608 L99.5 606 L99.5 604 L98.5 602 L98.5 600 Z"/>
<path d="M315.5 603 L315.5 605 L314.5 607 L314.5 609 L314.5 611 L314.5 613 L314.5 615 L314.5 617 L314.5 619 L314.5 621 L314.5 623 L314.5 625 L313.5 627 L313.5 629 L314.5 631 L314.5 633 L314.5 635 L313.5 637 L313.5 639 L313.5 641 L313.5 643 L313.5 645 L313.5 647 L313.5 649 L313.5 651 L313.5 653 L313.5 655 L313.5 657 L314.5 659 L314.5 661 L313.5 663 L313.5 665 L313.5 667 L313.5 669 L313.5 671 L313.5 673 L313.5 675 L313.5 677 L313.5 679 L314.5 681 L314.5 683 L314.5 685 L314.5 687 L313.5 689 L314.5 691 L314.5 693 L314.5 695 L313.5 697 L313.5 699 L313.5 701 L313.5 703 L313.5 705 L313.5 707 L313.5 709 L313.5 711 L313.5 713 L313.5 715 L313.5 717 L314.5 719 L314.5 721 L314.5 723 L314.5 725 L314.5 727 L314.5 729 L314.5 731 L314.5 733 L314.5 735 L314.5 737 L314.5 739 L313.5 741 L313.5 743 L313.5 745 L313.5 747 L313.5 749 L313.5 751 L313.5 753 L313.5 755 L313.5 757 L313.5 759 L313.5 761 L313.5 763 L313.5 765 L313.5 767 L313.5 769 L313.5 771 L313.5 773 L313.5 775 L313.5 777 L313.5 779 L313.5 781 L313.5 783 L314.5 785 L314.5 787 L313.5 789 L313.5 791 L313.5 793 L312.5 795 L312.5 797 L312.5 799 L312.5 801 L311.5 803 L311.5 805 L310.5 807 L310.5 809 L310.5 811 L309.5 813 L309.5 815 L309.5 817 L309.5 819 L309.5 821 L310.5 823 L311.5 825 L312 826 L312.5 827 L313.5 827.5 L314.5 828 L316.5 828.5 L318.5 829 L319.5 829.3333333333334 L320.5 829.6666666666666 L321.5 830 L349.5 830 L350.8333333333333 829.6666666666666 L352.1666666666667 829.3333333333334 L353.5 829 L354.5 828.5 L355.5 828 L356.5 827.5 L357.5 827 L358.875 826 L360.25 825 L360.5 823 L361.5 821 L361.5 819 L361.5 817 L361.5 815 L360.5 813 L359.5 811 L359.5 809 L358.5 807 L358.5 805 L358.5 803 L358.5 801 L357.5 799 L357.5 797 L357.5 795 L356.5 793 L356.5 791 L356.5 789 L356.5 787 L356.5 785 L356.5 783 L356.5 781 L356.5 779 L356.5 777 L356.5 775 L356.5 773 L356.5 771 L356.5 769 L356.5 767 L356.5 765 L356.5 763 L356.5 761 L356.5 759 L356.5 757 L356.5 755 L356.5 753 L356.5 751 L356.5 749 L356.5 747 L356.5 745 L356.5 743 L356.5 741 L356.5 739 L356.5 737 L356.5 735 L356.5 733 L356.5 731 L356.5 729 L356.5 727 L356.5 725 L356.5 723 L356.5 721 L356.5 719 L356.5 717 L356.5 715 L356.5 713 L356.5 711 L356.5 709 L356.5 707 L356.5 705 L356.5 703 L356.5 701 L356.5 699 L356.5 697 L356.5 695 L356.5 693 L356.5 691 L356.5 689 L356.5 687 L356.5 685 L356.5 683 L356.5 681 L356.5 679 L356.5 677 L356.5 675 L356.5 673 L356.5 671 L356.5 669 L356.5 667 L356.5 665 L356.5 663 L356.5 661 L356.5 659 L356.5 657 L356.5 655 L356.5 653 L356.5 651 L356.5 649 L356.5 647 L356.5 645 L356.5 643 L356.5 641 L356.5 639 L356.5 637 L356.5 635 L356.5 633 L356.5 631 L356.5 629 L356.5 627 L356.5 625 L355.5 623 L355.5 621 L355.5 619 L355.5 617 L355.5 615 L355.5 613 L355.5 611 L355.5 609 L355.5 607 L356.5 605 L356.5 603 Z"/>
</g>
</svg>
